<svg xmlns="http://www.w3.org/2000/svg" xmlns:xlink="http://www.w3.org/1999/xlink" version="1.1" id="Layer_1" x="0px" y="0px" width="100px" height="100px" viewBox="0 0 100 100" enable-background="new 0 0 100 100" xml:space="preserve">
<g id="Captions">
</g>
<path fill="none" d="M48.532,50.551"/>
<path fill="none" d="M35.507,57.701"/>
<path d="M68.562,22.628c2.203,3.423,2.936,6.88,1.633,7.728L20.106,62.645c-1.315,0.834-4.155-1.254-6.365-4.677l0,0  c-2.203-3.424-2.929-6.882-1.627-7.729l50.083-32.282C63.512,17.117,66.352,19.205,68.562,22.628L68.562,22.628z"/>
<g>
	<g>
		<path d="M84.757,2.624c-7.79-3.191-16.66,0.427-20.071,8.063l13.909,21.877c6.233,0.112,12.187-3.539,14.684-9.659    C96.525,14.948,92.716,5.871,84.757,2.624z"/>
	</g>
</g>
<path d="M52.381,82.303c0,1.56-1.749,2.813-3.904,2.813l0,0c-2.156,0-3.905-1.254-3.905-2.813V36.735  c0-1.559,1.749-2.813,3.905-2.813l0,0c2.155,0,3.904,1.254,3.904,2.813V82.303z"/>
<ellipse cx="49.405" cy="87.72" rx="29.875" ry="11.28"/>
</svg>