<svg xmlns="http://www.w3.org/2000/svg" xmlns:xlink="http://www.w3.org/1999/xlink" version="1.1" id="Layer_1" x="0px" y="0px" width="100px" height="100px" viewBox="0 0 100 100" enable-background="new 0 0 100 100" xml:space="preserve">
<g>
	<path fill="#fff" d="M78.685,56.269l-0.013-3.177c4.492,0.587,13.649-2.684,13.649-2.684c-3.104-3.174-3.806-6.879-5.844-21.417   C84.44,14.452,71.805,14.588,70.854,14.588S57.267,14.452,55.229,28.99c-2.038,14.538-2.74,18.243-5.843,21.417   c0,0,9.157,3.271,13.649,2.684l-0.013,3.177c-2.305,2.527-5.047,4.457-7.783,6.102c0.896,0.508,1.785,0.999,2.649,1.473   c6.106,3.35,11.874,6.513,11.874,12.85v6.926h28.4c0.975,0,1.765-0.791,1.765-1.766v-7.94   C99.928,66.631,86.677,65.033,78.685,56.269z"/>
</g>
<path fill="#fff" d="M99.843,73.97v7.94"/>
<path fill="#fff" d="M43.186,57.071L43.186,57.071v-2.551c2.317-2.701,4.064-5.818,5.253-9.45  c0.169-0.519,0.328-1.048,0.474-1.587c1.214-0.623,2.202-2.282,2.424-4.317c0.075-0.677,0.059-1.331-0.035-1.936  c-0.158-1.007-0.531-1.874-1.053-2.472c0.104-1.927,0.108-3.963,0.018-6.109c-0.07-1.669-0.197-3.404-0.388-5.216  c-0.047-0.448-0.107-0.878-0.179-1.295c-1.807-10.416-11.285-11.445-14.886-11.454c-0.144-0.001-2.636-0.001-2.78,0  c-3.601,0.008-13.079,1.038-14.886,11.454c-0.072,0.417-0.132,0.848-0.179,1.295c-0.19,1.812-0.316,3.546-0.388,5.216  c-0.091,2.146-0.087,4.183,0.018,6.109c-0.523,0.598-0.896,1.465-1.052,2.472c-0.095,0.605-0.111,1.259-0.037,1.936  c0.224,2.035,1.21,3.695,2.425,4.317c0.294,1.08,0.633,2.116,1.019,3.112c1.155,2.989,2.723,5.609,4.709,7.925v2.55v0.001  C14.775,66.818,0.084,68.594,0.084,76.692v8.828c0,1.084,0.878,1.964,1.963,1.964h62.753c1.084,0,1.962-0.88,1.962-1.964v-8.828  C66.763,68.594,52.072,66.818,43.186,57.071z"/>
</svg>