<svg xmlns="http://www.w3.org/2000/svg" xmlns:xlink="http://www.w3.org/1999/xlink" version="1.1" x="0px" y="0px" width="100px" height="100px" viewBox="0 0 100 100" enable-background="new 0 0 100 100" xml:space="preserve">
<g id="Captions">
</g>
<g id="Your_Icon">
	<path d="M87.5,27.292c0-6.944-16.789-12.576-37.501-12.576c-20.71,0-37.499,5.632-37.499,12.576c0,0.148,0.018,0.294,0.033,0.441   c-0.006,0.035-0.033,0.046-0.033,0.09c0,0.665,0,1.77,0,2.454c0,0.686,0.324,1.571,0.72,1.968c0.396,0.396,1.441,1.445,2.325,2.331   l27.111,27.188c0,8.948,0,19.865,0,20.237c0,0.634,1.196,3.283,7.345,3.283c6.147,0,7.343-2.489,7.343-3.283   c0-0.467,0-11.375,0-20.294l27.399-27.424c0.883-0.886,1.865-1.868,2.183-2.184c0.314-0.317,0.574-1.043,0.574-1.615   s0-1.678,0-2.455c0-0.069-0.034-0.095-0.046-0.149C87.481,27.685,87.5,27.489,87.5,27.292z M49.999,20.472   c18.605,0,29.207,4.472,31.473,6.82c-2.266,2.349-12.867,6.82-31.473,6.82c-18.604,0-29.205-4.472-31.47-6.82   C20.794,24.943,31.395,20.472,49.999,20.472z"></path>
</g>
</svg>