<svg xmlns="http://www.w3.org/2000/svg" xmlns:xlink="http://www.w3.org/1999/xlink" version="1.1" x="0px" y="0px" width="100px" height="100px" viewBox="0 0 100 100" enable-background="new 0 0 100 100" xml:space="preserve">
<g id="Captions">
</g>
<g id="Your_Icon">
	<polygon fill-rule="evenodd" clip-rule="evenodd" points="90,0 20,0 20,10 90,10 90,80 100,80 100,10 100,0  "/>
	<path fill-rule="evenodd" clip-rule="evenodd" d="M0,20v80h80V20H0z M58,37.365v10.666V70.12l0,0c0,2.892-2.908,6.105-6.998,6.686   c-4.331,0.611-8.265-1.536-8.734-4.862c-0.47-3.324,2.453-6.487,6.784-7.1C50.934,64.578,53,64.871,54,65.531V48.276   c-4,0.39-12,1.365-20,3.697v22.966l0,0c0,2.892-2.725,6.033-6.816,6.61c-4.33,0.612-8.288-1.57-8.757-4.896   c-0.47-3.326,2.874-6.508,7.204-7.119C27.514,69.27,29,69.544,31,70.203V42.168l0,0v-1.454c0,0,9-5.943,27-5.03V37.365z"/>
</g>
</svg>