<svg xmlns:x="http://ns.adobe.com/Extensibility/1.0/" xmlns:i="http://ns.adobe.com/AdobeIllustrator/10.0/" xmlns:graph="http://ns.adobe.com/Graphs/1.0/" xmlns="http://www.w3.org/2000/svg" xmlns:xlink="http://www.w3.org/1999/xlink" version="1.1" id="Your_Icon" x="0px" y="0px" width="100px" height="100px" viewBox="0 0 100 100" enable-background="new 0 0 100 100" xml:space="preserve">
<switch>

	<g i:extraneous="self">
		<path d="M89.141,35.617C86.25,22.852,77.844,14.405,68.699,10.364c11.371,10.018,21.846,29.405,8.814,47.069    c-5.406,7.331-16.217,10.228-20.746,8.184c0,0,7.002-1.487,11.357-5.295c8.469-8.017,11.299-20.932,4.52-32.673    c-0.969-1.678-2.098-3.206-3.357-4.575c-0.018-0.021-0.033-0.042-0.051-0.062c-4.764-5.683-11.307-9.075-18.337-10.116    c-9.127-1.715-20.896,0.515-29.71,8.666C11.58,30.45,8.468,41.953,9.542,51.895c2.989-14.858,14.542-33.622,36.355-31.171    c9.053,1.019,16.965,8.932,17.461,13.877c0,0-5.277-8.281-18.365-8.281c-0.24,0.004-0.747,0.024-0.761,0.024    c-0.055,0.003-0.111,0.006-0.167,0.01c-8.51,0.333-16.783,4.784-21.83,13.526c-0.969,1.677-1.727,3.419-2.284,5.195    c-0.01,0.024-0.019,0.05-0.028,0.074c-2.539,6.968-2.205,14.33,0.407,20.938c3.079,8.763,10.896,17.841,22.361,21.397    c12.502,3.878,24.02,0.82,32.092-5.079C60.42,87.242,38.394,86.621,29.61,66.506c-3.645-8.35-0.749-19.159,3.287-22.061    c0,0-4.534,8.71,2.012,20.044c4.482,7.484,12.617,12.658,22.949,12.658c0.498,0,4.488-0.311,5.926-0.633    c0.027-0.003,0.055-0.008,0.08-0.011c7.303-1.286,13.512-5.256,17.928-10.822C87.842,58.635,91.795,47.325,89.141,35.617z"/>
	</g>
</switch>
</svg>